<svg width="61" height="30" viewBox="0 0 61 30" fill="none" xmlns="http://www.w3.org/2000/svg">
<g clip-path="url(#clip0_1_140)">
<path d="M0.436377 29.2917H5.3981V8.16984H0.436377V29.2917ZM2.90739 5.4C4.46153 5.4 5.677 4.20445 5.677 2.71008C5.677 1.19531 4.46153 0 2.90739 0C1.37294 0 0.157471 1.19555 0.157471 2.71008C0.157471 4.20445 1.37294 5.4 2.90739 5.4ZM21.9175 0.0595313C13.5288 0.0595313 8.26802 5.77852 8.26802 14.925C8.26802 24.0712 13.5283 29.7703 21.9178 29.7703C30.2866 29.7703 35.5474 24.0712 35.5474 14.925C35.5474 5.77852 30.2868 0.0595313 21.9175 0.0595313ZM21.9175 4.44352C27.0386 4.44352 30.3065 8.50852 30.3065 14.9248C30.3065 21.3211 27.0386 25.3863 21.9178 25.3863C16.7768 25.3863 13.5288 21.3213 13.5288 14.9248C13.5288 8.50852 16.7768 4.44352 21.9175 4.44352ZM37.6406 21.2016C37.8597 26.5022 42.2036 29.7698 48.8191 29.7698C55.7735 29.7698 60.1575 26.3426 60.1575 20.8826C60.1575 16.5984 57.6867 14.1874 51.8482 12.8524L48.5404 12.0954C45.0133 11.2584 43.5588 10.1426 43.5588 8.22961C43.5588 5.83828 45.7507 4.2443 48.9986 4.2443C52.2865 4.2443 54.5381 5.85844 54.7774 8.54836H59.6791C59.5596 3.48703 55.375 0.0595313 49.0385 0.0595313C42.7816 0.0595313 38.3381 3.50672 38.3381 8.60812C38.3381 12.713 40.8487 15.2634 46.1489 16.4791L49.8752 17.3557C53.5017 18.2128 54.9764 19.4084 54.9764 21.4807C54.9764 23.8718 52.5651 25.5855 49.0983 25.5855C45.5913 25.5855 42.9412 23.8519 42.6225 21.2016H37.6406Z" fill="white" fill-opacity="0.8"/>
</g>
<defs>
<clipPath id="clip0_1_140">
<rect width="60.2344" height="30" fill="white"/>
</clipPath>
</defs>
</svg>
