<svg width="18" height="18" viewBox="0 0 18 18" fill="none" xmlns="http://www.w3.org/2000/svg">
<path d="M2 18C1.45 18 0.979002 17.804 0.587002 17.412C0.195002 17.02 -0.000664969 16.5493 1.69779e-06 16V2C1.69779e-06 1.45 0.196002 0.979002 0.588002 0.587002C0.980002 0.195002 1.45067 -0.000664969 2 1.69779e-06H8C8.28334 1.69779e-06 8.521 0.0960018 8.713 0.288002C8.905 0.480002 9.00067 0.717335 9 1C9 1.28333 8.904 1.521 8.712 1.713C8.52 1.905 8.28267 2.00067 8 2H2V16H8C8.28334 16 8.521 16.096 8.713 16.288C8.905 16.48 9.00067 16.7173 9 17C9 17.2833 8.904 17.521 8.712 17.713C8.52 17.905 8.28267 18.0007 8 18H2ZM14.175 10H7C6.71667 10 6.479 9.904 6.287 9.712C6.095 9.52 5.99934 9.28267 6 9C6 8.71667 6.096 8.479 6.288 8.287C6.48 8.095 6.71734 7.99934 7 8H14.175L12.3 6.125C12.1167 5.94167 12.025 5.71667 12.025 5.45C12.025 5.18333 12.1167 4.95 12.3 4.75C12.4833 4.55 12.7167 4.44567 13 4.437C13.2833 4.42834 13.525 4.52433 13.725 4.725L17.3 8.3C17.5 8.5 17.6 8.73334 17.6 9C17.6 9.26667 17.5 9.5 17.3 9.7L13.725 13.275C13.525 13.475 13.2873 13.571 13.012 13.563C12.7367 13.555 12.4993 13.4507 12.3 13.25C12.1167 13.05 12.029 12.8123 12.037 12.537C12.045 12.2617 12.141 12.0327 12.325 11.85L14.175 10Z" fill="white"/>
</svg>
