<svg width="42" height="42" viewBox="0 0 42 42" fill="none" xmlns="http://www.w3.org/2000/svg">
<circle cx="21" cy="21" r="20.25" stroke="white" stroke-opacity="0.8" stroke-width="1.5"/>
<g clip-path="url(#clip0_4680_437)">
<path d="M28.8556 24.46C28.789 24.3798 28.7236 24.2996 28.6595 24.2222C27.7772 23.1551 27.2434 22.511 27.2434 19.4899C27.2434 17.9259 26.8692 16.6425 26.1317 15.68C25.5879 14.969 24.8528 14.4296 23.8839 14.031C23.8714 14.024 23.8603 14.0149 23.851 14.0041C23.5025 12.8371 22.5488 12.0554 21.4732 12.0554C20.3976 12.0554 19.4443 12.8371 19.0958 14.0029C19.0865 14.0133 19.0755 14.0221 19.0633 14.0289C16.8023 14.9598 15.7034 16.7456 15.7034 19.4887C15.7034 22.511 15.1704 23.1551 14.2873 24.221C14.2232 24.2984 14.1578 24.377 14.0912 24.4588C13.9193 24.6662 13.8103 24.9185 13.7773 25.1859C13.7442 25.4533 13.7884 25.7245 13.9047 25.9676C14.1522 26.4889 14.6796 26.8126 15.2815 26.8126H27.6693C28.2684 26.8126 28.7922 26.4893 29.0405 25.9704C29.1572 25.7273 29.2019 25.4558 29.1691 25.1881C29.1364 24.9205 29.0276 24.6678 28.8556 24.46ZM21.4732 30.0221C22.0527 30.0216 22.6213 29.8643 23.1187 29.5668C23.616 29.2694 24.0236 28.8429 24.2981 28.3325C24.3111 28.308 24.3175 28.2807 24.3167 28.253C24.3159 28.2253 24.308 28.1984 24.2937 28.1747C24.2794 28.151 24.2592 28.1314 24.2351 28.1178C24.211 28.1042 24.1838 28.0971 24.1562 28.0971H18.791C18.7633 28.097 18.7361 28.1041 18.7119 28.1176C18.6878 28.1312 18.6675 28.1508 18.6532 28.1745C18.6389 28.1982 18.6309 28.2252 18.6301 28.2529C18.6293 28.2806 18.6357 28.308 18.6487 28.3325C18.9232 28.8428 19.3307 29.2693 19.828 29.5667C20.3252 29.8642 20.8937 30.0215 21.4732 30.0221Z" fill="white" fill-opacity="0.8"/>
<circle cx="27.9999" cy="14.9333" r="3.73333" fill="#FF1C1C"/>
</g>
<defs>
<clipPath id="clip0_4680_437">
<rect width="20.5333" height="20.5333" fill="white" transform="translate(11.2 11.2)"/>
</clipPath>
</defs>
</svg>
