<svg width="42" height="42" viewBox="0 0 42 42" fill="none" xmlns="http://www.w3.org/2000/svg">
<circle cx="21" cy="21" r="20" stroke="white" stroke-opacity="0.8" stroke-width="2"/>
<g clip-path="url(#clip0_4680_443)">
<path fill-rule="evenodd" clip-rule="evenodd" d="M17.6876 15.3334V14.453C17.6876 13.5902 18.0303 12.7628 18.6404 12.1527C19.2504 11.5427 20.0778 11.2 20.9406 11.2C21.8034 11.2 22.6308 11.5427 23.2408 12.1527C23.8509 12.7628 24.1936 13.5902 24.1936 14.453V15.3334C25.31 15.3673 25.9936 15.487 26.515 15.9199C27.2376 16.5201 27.4284 17.5351 27.8092 19.5658L28.4598 23.0357C28.9951 25.8914 29.2622 27.3193 28.4824 28.2596C27.7017 29.2 26.2487 29.2 23.3435 29.2H18.5377C15.6317 29.2 14.1795 29.2 13.3988 28.2596C12.6181 27.3193 12.887 25.8914 13.4214 23.0357L14.072 19.5658C14.4537 17.536 14.6436 16.5201 15.3662 15.9199C15.8876 15.487 16.5712 15.3673 17.6876 15.3334ZM18.9888 14.453C18.9888 13.9353 19.1944 13.4389 19.5605 13.0728C19.9265 12.7068 20.423 12.5012 20.9406 12.5012C21.4583 12.5012 21.9547 12.7068 22.3207 13.0728C22.6868 13.4389 22.8924 13.9353 22.8924 14.453V15.3204H18.9888V14.453Z" fill="white" fill-opacity="0.8"/>
</g>
<defs>
<clipPath id="clip0_4680_443">
<rect width="20.5333" height="20.5333" fill="white" transform="translate(11.2 11.2)"/>
</clipPath>
</defs>
</svg>
