<svg width="22" height="20" viewBox="0 0 22 20" fill="none" xmlns="http://www.w3.org/2000/svg">
<path d="M20 11.242V18H21V20H1V18H2V11.242C1.38437 10.8311 0.879713 10.2745 0.53082 9.62176C0.181927 8.96899 -0.000407734 8.24017 6.84612e-07 7.5C6.84612e-07 6.673 0.224001 5.876 0.633001 5.197L3.345 0.5C3.43277 0.347985 3.559 0.221749 3.71101 0.133981C3.86303 0.0462129 4.03547 4.45922e-06 4.211 0H17.79C17.9655 4.45922e-06 18.138 0.0462129 18.29 0.133981C18.442 0.221749 18.5682 0.347985 18.656 0.5L21.359 5.182C21.777 5.876 22.001 6.672 22.001 7.5C22.001 9.06 21.206 10.435 20 11.242ZM18 11.972C17.3124 12.0491 16.6163 11.9665 15.9659 11.7307C15.3155 11.4948 14.7283 11.1119 14.25 10.612C13.8302 11.0511 13.3258 11.4005 12.7672 11.6393C12.2086 11.878 11.6075 12.001 11 12.001C10.3927 12.0013 9.7916 11.8786 9.23303 11.6402C8.67445 11.4018 8.16996 11.0527 7.75 10.614C7.27163 11.1138 6.68437 11.4964 6.03395 11.7321C5.38353 11.9678 4.68749 12.0503 4 11.973V18H18V11.972ZM4.789 2L2.356 6.213C2.17998 6.50891 2.06698 6.83799 2.02409 7.17961C1.98119 7.52123 2.00932 7.86803 2.10672 8.19827C2.20412 8.52851 2.36867 8.83507 2.59008 9.09874C2.81149 9.36241 3.08498 9.57751 3.3934 9.73054C3.70182 9.88358 4.03853 9.97126 4.38242 9.98809C4.72631 10.0049 5.06998 9.95053 5.39187 9.82833C5.71376 9.70614 6.00694 9.51877 6.25303 9.27798C6.49912 9.03719 6.69283 8.74815 6.822 8.429C7.157 7.592 8.342 7.592 8.678 8.429C8.8633 8.89342 9.1836 9.2916 9.59753 9.5721C10.0115 9.85261 10.5 10.0025 11 10.0025C11.5 10.0025 11.9885 9.85261 12.4025 9.5721C12.8164 9.2916 13.1367 8.89342 13.322 8.429C13.657 7.592 14.842 7.592 15.178 8.429C15.3078 8.74845 15.5022 9.0376 15.7491 9.27828C15.996 9.51895 16.2901 9.70595 16.6127 9.82752C16.9354 9.94909 17.2797 10.0026 17.6241 9.98468C17.9684 9.96677 18.3053 9.87782 18.6136 9.72343C18.9219 9.56903 19.1949 9.35253 19.4155 9.08753C19.6361 8.82253 19.7995 8.51477 19.8955 8.18357C19.9914 7.85238 20.0178 7.50493 19.973 7.16305C19.9281 6.82118 19.8131 6.49227 19.635 6.197L17.21 2H4.789Z" fill="white" fill-opacity="0.8"/>
</svg>
