<svg width="24" height="24" viewBox="0 0 24 24" fill="none" xmlns="http://www.w3.org/2000/svg">
<path d="M6.40005 23.2H17.6M12 23.2V15.2M12 15.2C13.6974 15.2 15.3253 14.5258 16.5255 13.3255C17.7258 12.1253 18.4 10.4974 18.4 8.80005V2.40005C18.4 1.9757 18.2315 1.56874 17.9314 1.26868C17.6314 0.96862 17.2244 0.800049 16.8 0.800049H7.20005C6.7757 0.800049 6.36874 0.96862 6.06868 1.26868C5.76862 1.56874 5.60005 1.9757 5.60005 2.40005V8.80005C5.60005 10.4974 6.27433 12.1253 7.47457 13.3255C8.6748 14.5258 10.3027 15.2 12 15.2ZM5.60005 4.00005H4.00005C3.15136 4.00005 2.33742 4.33719 1.73731 4.93731C1.13719 5.53742 0.800049 6.35136 0.800049 7.20005C0.800049 8.04874 1.13719 8.86267 1.73731 9.46279C2.33742 10.0629 3.15136 10.4 4.00005 10.4H5.60005M18.4 4.00005H20C20.8487 4.00005 21.6627 4.33719 22.2628 4.93731C22.8629 5.53742 23.2 6.35136 23.2 7.20005C23.2 8.04874 22.8629 8.86267 22.2628 9.46279C21.6627 10.0629 20.8487 10.4 20 10.4H18.4" stroke="white" stroke-opacity="0.8" stroke-width="2"/>
</svg>
