<svg width="20" height="16" viewBox="0 0 20 16" fill="none" xmlns="http://www.w3.org/2000/svg">
<path fill-rule="evenodd" clip-rule="evenodd" d="M0.804101 4.35296C0.524101 6.95596 0.536102 9.95796 0.926102 12.55C1.03079 13.2468 1.36698 13.8882 1.88052 14.3707C2.39407 14.8532 3.05508 15.1488 3.7571 15.21L5.2671 15.341C8.4171 15.615 11.5831 15.615 14.7331 15.341L16.2431 15.211C16.9451 15.1498 17.6061 14.8542 18.1197 14.3717C18.6332 13.8892 18.9694 13.2478 19.0741 12.551C19.4641 9.95796 19.4761 6.95596 19.1961 4.35296C19.16 4.05103 19.1193 3.74967 19.0741 3.44896C18.9694 2.75211 18.6332 2.11077 18.1197 1.62824C17.6061 1.14572 16.9451 0.850084 16.2431 0.788963L14.7331 0.658963C11.5837 0.385163 8.4165 0.385163 5.2671 0.658963L3.7571 0.788963C3.05508 0.850084 2.39407 1.14572 1.88052 1.62824C1.36698 2.11077 1.03079 2.75211 0.926102 3.44896C0.881018 3.74968 0.840346 4.05105 0.804101 4.35296ZM5.3971 2.15296C8.45966 1.88674 11.5395 1.88674 14.6021 2.15296L16.1121 2.28396C16.4787 2.31597 16.8239 2.47036 17.0922 2.72229C17.3604 2.97423 17.5362 3.30907 17.5911 3.67296L17.6251 3.90596L12.0641 6.99596C11.4327 7.34673 10.7224 7.5308 10.0001 7.5308C9.27783 7.5308 8.56748 7.34673 7.9361 6.99596L2.3751 3.90596L2.4091 3.67296C2.46365 3.30908 2.63913 2.97416 2.90725 2.72218C3.17538 2.4702 3.52054 2.31584 3.8871 2.28396L5.3971 2.15296ZM17.8081 5.51996C18.0025 7.78964 17.9296 10.0743 17.5911 12.327C17.5366 12.6908 17.3611 13.0258 17.0929 13.2777C16.8248 13.5297 16.4797 13.6841 16.1131 13.716L14.6031 13.847C11.5402 14.1132 8.45999 14.1132 5.3971 13.847L3.8871 13.716C3.52054 13.6841 3.17538 13.5297 2.90725 13.2777C2.63913 13.0258 2.46365 12.6908 2.4091 12.327C2.07025 10.0743 1.99709 7.78967 2.1911 5.51996L7.2071 8.30696C8.06132 8.78154 9.0224 9.03059 9.9996 9.03059C10.9768 9.03059 11.9379 8.78154 12.7921 8.30696L17.8081 5.51996Z" fill="white" fill-opacity="0.8"/>
</svg>
