<svg width="22" height="18" viewBox="0 0 22 18" fill="none" xmlns="http://www.w3.org/2000/svg">
<path d="M0.5 4.125C0.5 3.22989 0.855579 2.37145 1.48851 1.73851C2.12145 1.10558 2.97989 0.75 3.875 0.75H18.125C19.0201 0.75 19.8785 1.10558 20.5115 1.73851C21.1444 2.37145 21.5 3.22989 21.5 4.125V13.875C21.5 14.7701 21.1444 15.6285 20.5115 16.2615C19.8785 16.8944 19.0201 17.25 18.125 17.25H3.875C2.97989 17.25 2.12145 16.8944 1.48851 16.2615C0.855579 15.6285 0.5 14.7701 0.5 13.875V4.125ZM3.875 2.25C3.37772 2.25 2.90081 2.44754 2.54917 2.79917C2.19754 3.15081 2 3.62772 2 4.125V5.25H20V4.125C20 3.62772 19.8025 3.15081 19.4508 2.79917C19.0992 2.44754 18.6223 2.25 18.125 2.25H3.875ZM2 13.875C2 14.3723 2.19754 14.8492 2.54917 15.2008C2.90081 15.5525 3.37772 15.75 3.875 15.75H18.125C18.6223 15.75 19.0992 15.5525 19.4508 15.2008C19.8025 14.8492 20 14.3723 20 13.875V6.75H2V13.875ZM14.75 11.25H17C17.1989 11.25 17.3897 11.329 17.5303 11.4697C17.671 11.6103 17.75 11.8011 17.75 12C17.75 12.1989 17.671 12.3897 17.5303 12.5303C17.3897 12.671 17.1989 12.75 17 12.75H14.75C14.5511 12.75 14.3603 12.671 14.2197 12.5303C14.079 12.3897 14 12.1989 14 12C14 11.8011 14.079 11.6103 14.2197 11.4697C14.3603 11.329 14.5511 11.25 14.75 11.25Z" fill="white" fill-opacity="0.8"/>
</svg>
